<?xml version="1.0" encoding="UTF-8" standalone="no"?>
<svg
   xmlns:dc="http://purl.org/dc/elements/1.1/"
   xmlns:cc="http://creativecommons.org/ns#"
   xmlns:rdf="http://www.w3.org/1999/02/22-rdf-syntax-ns#"
   xmlns:svg="http://www.w3.org/2000/svg"
   xmlns="http://www.w3.org/2000/svg"
   xmlns:xlink="http://www.w3.org/1999/xlink"
   xmlns:sodipodi="http://sodipodi.sourceforge.net/DTD/sodipodi-0.dtd"
   xmlns:inkscape="http://www.inkscape.org/namespaces/inkscape"
   width="304.26086mm"
   height="362.61642mm"
   viewBox="0 0 1078.0897 1284.8613"
   id="svg2"
   version="1.1"
   inkscape:version="0.91 r13725"
   sodipodi:docname="lampInPre.svg">
  <defs
     id="defs4">
    <linearGradient
       inkscape:collect="always"
       id="linearGradient4470">
      <stop
         style="stop-color:#ffffff;stop-opacity:1;"
         offset="0"
         id="stop4472" />
      <stop
         style="stop-color:#ffffff;stop-opacity:0;"
         offset="1"
         id="stop4474" />
    </linearGradient>
    <filter
       height="1.9980628"
       y="-0.49903142"
       width="1.9658673"
       x="-0.48293363"
       id="filter4671"
       style="color-interpolation-filters:sRGB">
      <feGaussianBlur
         id="feGaussianBlur4673"
         stdDeviation="90.60531" />
    </filter>
    <filter
       inkscape:collect="always"
       style="color-interpolation-filters:sRGB"
       id="filter4446"
       x="-0.36852292"
       width="1.7370458"
       y="-0.38080702"
       height="1.761614">
      <feGaussianBlur
         inkscape:collect="always"
         stdDeviation="69.140212"
         id="feGaussianBlur4448" />
    </filter>
    <linearGradient
       inkscape:collect="always"
       xlink:href="#linearGradient4470"
       id="linearGradient4476"
       x1="-128.17152"
       y1="752.39427"
       x2="653.97606"
       y2="752.39427"
       gradientUnits="userSpaceOnUse" />
  </defs>

  <ellipse
     transform="matrix(1.0063458,0,0,1.1193635,270.89146,-13.294205)"
     ry="217.8748"
     rx="225.1373"
     cy="752.39429"
     cx="262.90228"
     id="path3353"
     style="opacity:0.79381443;fill:url(#linearGradient4476);fill-opacity:1;filter:url(#filter4446)" />
  <g
     id="layer1"
     transform="translate(259.10566,-1.6481272)">
    <path
       style="fill:#191919"
       d="m 203.81612,692.21701 c -28.90879,-0.42252 -86.42424,-2.53064 -113.671788,-4.16641 -45.73447,-2.74558 -51.36203,-3.22397 -70.05719,-5.95562 C 7.9656414,680.32389 7.5714314,679.73014 7.5714314,663.24341 l 0,-13.20246 5.8037996,0 5.803801,0 0.6555,-4.55763 c 3.77221,-26.22757 10.98126,-55.15488 17.40673,-69.84674 2.55539,-5.84293 4.64618,-10.99147 4.64618,-11.44123 0,-2.12143 15.86234,-28.08489 22.17208,-36.29118 9.72933,-12.65382 41.540768,-43.93799 47.899628,-47.10568 2.74702,-1.36845 4.99458,-2.88289 4.99458,-3.36545 0,-1.22065 11.10836,-8.05968 30.04233,-18.49601 17.78555,-9.80332 17.83538,-9.86396 16.97689,-20.65812 -0.38517,-4.84288 -0.35553,-4.89106 4.04304,-6.57089 2.43708,-0.93073 6.64126,-3.94208 9.34264,-6.69191 6.09833,-6.20772 8.22711,-13.40093 8.22711,-27.79961 l 0,-10.01697 3.48522,-1.53951 c 6.68469,-2.95279 9.56984,-6.24776 10.17546,-11.62085 l 0.55913,-4.96058 -7.91418,0.006 c -4.35281,0.003 -11.89539,0.31635 -16.76128,0.69513 l -8.8471,0.6887 0,9.64181 0,9.6418 -5.54785,-0.65705 c -3.05133,-0.36139 -5.92563,-1.03484 -6.38737,-1.49657 -0.46173,-0.46174 -1.17128,-4.81769 -1.57676,-9.67988 l -0.73726,-8.84038 -3.97979,0 -3.97979,0 -0.62475,7.45198 c -0.97068,11.57834 -1.25588,11.85078 -12.40561,11.85078 -8.42079,0 -9.65727,-0.25748 -11.58724,-2.41285 -3.51142,-3.92151 -5.77976,-14.99077 -5.9883,-29.22223 -0.16151,-11.02156 0.13298,-13.57605 2.0518,-17.79831 2.10685,-4.63603 2.5448,-4.97155 7.34856,-5.62998 2.80951,-0.38507 7.15297,-0.70015 9.65215,-0.70015 4.40276,0 4.61109,0.15829 6.70417,5.09378 1.18811,2.80158 2.4923,6.66213 2.8982,8.57901 0.64565,3.04911 1.16343,3.48316 4.13801,3.4688 1.87,-0.009 3.91701,-0.37096 4.54891,-0.80428 0.81489,-0.55882 0.68378,-14.81698 -0.45098,-49.04476 -2.2599,-68.16572 -2.06914,-69.28073 14.29344,-83.54201 22.82985,-19.89801 38.82172,-39.718 42.91331,-53.18584 0.98553,-3.24394 2.44943,-7.58706 3.25311,-9.65139 2.66358,-6.84163 5.84426,-30.6149 5.85702,-43.77712 l 0.009,-8.92493 -2.82556,2.22258 c -1.55405,1.22242 -4.39319,2.22259 -6.30918,2.22259 -4.40779,0 -4.77231,-1.24412 -4.7915,-16.353726 l -0.0146,-11.528032 4.5576,0.01638 c 5.2911,0.01907 6.803,0.77419 7.48189,3.736896 1.04804,4.573713 2.97377,-3.848758 2.97377,-13.006266 l 0,-9.113319 3.37919,0.33603 c 5.3697,0.53398 7.60219,4.55761 8.19319,14.766591 l 0.49932,8.625523 3.61553,0 3.61552,0 0,-8.495841 0,-8.495836 3.89695,-1.286117 3.89695,-1.28609 -0.6801,-15.68698 c -1.15213,-26.57478 -1.06856,-37.7105903 0.29322,-39.0723603 1.26479,-1.2648 27.16193,-1.89972 28.37948,-0.6958 0.32452,0.32091 0.88034,12.3851303 1.23517,26.8093903 0.68286,27.75947 1.01632,31.528957 2.69726,30.49008 0.57779,-0.35709 2.01135,-0.34431 3.18569,0.0284 1.89613,0.60181 2.13514,1.632274 2.13514,9.204839 l 0,8.527167 2.94904,-0.646182 c 1.62197,-0.355409 3.55224,-0.832022 4.2895,-1.059155 0.95584,-0.294462 1.34047,-3.499611 1.34047,-11.170365 l 0,-10.757414 3.1794,0 c 4.29558,0 5.78941,2.95494 6.46287,12.784165 0.3425,4.998661 1.04382,8.122768 1.88576,8.400267 0.73726,0.242992 1.34048,-0.263171 1.34048,-1.124815 0,-2.742257 2.94566,-4.263601 6.84052,-3.532927 4.35154,0.816354 4.72017,1.805374 5.64804,15.152833 0.79423,11.424794 -0.24929,13.360234 -7.20329,13.360234 -3.49798,0 -4.2129,-0.36395 -4.2129,-2.14475 0,-1.47712 -0.71492,-2.144745 -2.29667,-2.144745 -2.26394,0 -2.28576,0.187155 -1.5317,13.136595 2.24167,38.49577 13.54315,64.02186 37.07201,83.7327 27.54432,23.07472 25.95065,21.40404 29.17895,30.58912 3.85496,10.96803 4.3396,17.46801 5.00899,67.1777 l 0.66425,49.32927 4.94862,0.32092 4.94862,0.32093 0.74216,-5.5947 c 0.40819,-3.07707 1.41403,-7.20268 2.23519,-9.16802 l 1.49304,-3.57332 8.66026,0 c 10.2864,0 9.79213,-0.66455 12.51658,16.82823 1.43535,9.21583 1.5614,13.34573 0.67702,22.18078 -0.59771,5.97104 -1.62094,12.1835 -2.27385,13.80547 -1.13554,2.82093 -1.51132,2.94903 -8.65047,2.94903 -12.37928,0 -13.5593,-1.06655 -14.58359,-13.18132 -0.15999,-1.89227 -0.3438,-3.80242 -0.40845,-4.24478 -0.20283,-1.3876 -9.44813,-0.8744 -10.66517,0.59203 -0.63735,0.76797 -1.29965,5.71431 -1.47177,10.99185 l -0.31294,9.59553 -3.55527,0.34127 c -5.63343,0.54074 -6.63227,-1.0686 -6.63227,-10.68606 l 0,-8.47363 -17.96229,0.29402 -17.96229,0.29403 -0.32866,2.83852 c -0.61797,5.3372 2.41287,10.22765 8.13586,13.12771 5.12801,2.59855 5.30444,2.84597 5.96773,8.369 0.37592,3.1302 0.6877,8.63546 0.69282,12.23391 0.0152,10.70437 5.37907,19.25417 15.75195,25.10827 l 5.70488,3.21963 0,8.05439 0,8.05438 11.52458,5.39509 c 40.32486,18.87756 81.15721,54.97551 103.35963,91.37535 6.60001,10.82041 13.48532,25.13498 17.91006,37.23499 3.27452,8.95458 10.03073,35.55423 11.43995,45.03979 0.39432,2.65409 1.40017,7.20547 2.23525,10.1141 0.83508,2.90863 1.51832,7.19984 1.51832,9.53605 l 0,4.24762 6.42152,-0.67118 6.42152,-0.67118 2.15749,4.22902 c 1.44769,2.83772 2.15748,6.33266 2.15748,10.62346 0,5.6752 -0.36191,6.75637 -3.21713,9.61164 -1.76942,1.76941 -3.21713,3.91249 -3.21713,4.76237 0,1.83588 -2.26576,2.19563 -27.88175,4.42703 -52.50445,4.57361 -99.19738,6.80498 -169.97149,8.12253 -53.28458,0.99195 -70.77714,1.04626 -117.4251,0.36452 z m -9.38328,-347.40713 c 4.93517,-0.83028 5.06506,-1.95371 0.53619,-4.6376 -5.61994,-3.33046 -6.16372,-4.15957 -6.21323,-9.4734 -0.0641,-6.8862 -2.24049,-12.4506 -6.15933,-15.74807 -5.02834,-4.23108 -7.73448,-10.80663 -7.73448,-18.79375 0,-8.4841 2.71019,-14.50906 9.03926,-20.09496 2.55474,-2.25476 5.1403,-5.76905 5.86309,-7.96911 1.60743,-4.89275 2.26867,-5.41705 10.6422,-8.43836 6.83253,-2.4653 18.4967,-10.38313 24.04383,-16.32134 1.65049,-1.76687 4.52604,-5.76234 6.39009,-8.87883 3.41256,-5.70541 5.55455,-6.92942 12.12634,-6.92942 1.35153,0 2.70029,-0.82936 3.05195,-1.87666 0.34656,-1.03216 1.07078,-2.60051 1.60935,-3.48521 0.53858,-0.88471 1.57084,-2.88252 2.29392,-4.43957 0.72308,-1.55704 2.468,-3.44822 3.87759,-4.20262 2.47748,-1.3259 2.5629,-1.78863 2.5629,-13.88444 0,-31.82098 -1.47138,-74.20357 -2.5878,-74.54059 -0.64104,-0.19351 -2.97515,-0.65259 -5.18692,-1.02017 -3.69068,-0.61337 -4.0214,-0.95667 -4.0214,-4.17444 0,-2.95114 -0.5941,-3.78941 -3.75332,-5.29593 -3.72239,-1.77508 -3.75331,-1.84741 -3.75331,-8.77762 l 0,-6.98779 -4.2895,0 -4.2895,0 -0.003,9.91947 c -0.009,28.23961 -8.25084,59.10988 -19.82767,74.262 -6.74754,8.83137 -22.88369,25.02793 -33.74409,33.8704 -5.16082,4.2019 -9.08476,8.34082 -10.08088,10.63317 -2.24305,5.16192 -2.78288,22.07631 -1.69415,53.08258 0.49705,14.15536 1.22343,34.85637 1.61421,46.00226 l 0.71047,20.26525 12.47791,-0.69435 c 6.86284,-0.3819 14.28753,-0.9988 16.4993,-1.3709 z m 166.78077,-56.42754 c -0.53174,-69.25511 0.44561,-65.59879 -22.68104,-84.85188 -12.73323,-10.60051 -24.89765,-23.24294 -29.12774,-30.27234 -11.10241,-18.44962 -17.20248,-39.15076 -18.38535,-62.39246 -0.36881,-7.24634 -1.07075,-13.422494 -1.55988,-13.724795 -0.48914,-0.302302 -2.58654,-0.23125 -4.6609,0.157904 l -3.77155,0.707547 0,7.807214 c 0,7.28006 -0.16861,7.84953 -2.49709,8.43395 -2.42753,0.60926 -5.00954,4.56698 -5.00954,7.67862 0,1.49627 -2.01766,2.2722 -7.50663,2.88689 l -2.68094,0.3002 0.23288,20.91132 c 0.12807,11.50123 0.54158,31.11195 0.9189,43.57939 0.68581,22.66106 0.68683,22.66843 3.28745,23.85335 1.43079,0.65193 3.52884,3.23937 4.66232,5.74989 2.91172,6.44904 4.67248,8.3179 7.83677,8.3179 4.65181,0 8.07562,1.88986 9.93382,5.48323 2.83016,5.47292 6.51249,9.56728 14.31974,15.92199 6.45053,5.25043 10.26383,7.41679 17.71107,10.06179 5.70668,2.02681 6.80003,2.88362 8.84159,6.92881 1.2813,2.5388 4.97468,7.15744 8.2075,10.26366 6.33121,6.08329 8.21747,10.42166 8.21747,18.90017 0,7.70437 -1.77778,12.12911 -7.50101,18.66936 -4.87894,5.57544 -5.36656,6.61555 -5.47924,11.68764 -0.068,3.06217 -0.23581,6.05014 -0.37285,6.63995 -0.13703,0.5898 -0.32265,1.56166 -0.41249,2.15969 -0.0899,0.59801 -2.09361,2.2803 -4.45283,3.73837 -2.35923,1.45808 -4.28951,3.01971 -4.28951,3.47029 0,0.45056 8.24239,0.81921 18.31641,0.81921 l 18.31641,0 -0.41374,-53.88686 z"
       id="path3347"
       inkscape:connector-curvature="0" />
  </g>
</svg>
