<?xml version="1.0" encoding="UTF-8" standalone="no"?>
<svg
   xmlns:dc="http://purl.org/dc/elements/1.1/"
   xmlns:cc="http://creativecommons.org/ns#"
   xmlns:rdf="http://www.w3.org/1999/02/22-rdf-syntax-ns#"
   xmlns:svg="http://www.w3.org/2000/svg"
   xmlns="http://www.w3.org/2000/svg"
   version="1.1"
   id="svg2"
   viewBox="0 0 292.52093 281.11835"
   height="79.337845mm"
   width="82.555908mm">
  <defs
     id="defs4" />
  <metadata
     id="metadata7">
    <rdf:RDF>
      <cc:Work
         rdf:about="">
        <dc:format>image/svg+xml</dc:format>
        <dc:type
           rdf:resource="http://purl.org/dc/dcmitype/StillImage" />
        <dc:title></dc:title>
      </cc:Work>
    </rdf:RDF>
  </metadata>
  <g
     transform="translate(-5.2707357,-768.19486)"
     id="layer1">
    <path
       id="path3347"
       d="M 10.419176,1045.7925 C 5.8704519,1040.3116 3.0877419,858.10703 7.4721159,852.82421 c 4.4590131,-5.37282 13.7804481,-5.01674 18.9765721,0.72494 3.669097,4.05428 4.253411,11.99828 4.253411,57.82616 l 0,53.1262 37.26577,0 37.265731,0 0,39.32179 c 0,41.2589 -1.07567,45.4899 -11.565218,45.4899 -9.524173,0 -11.565255,-4.9893 -11.565255,-28.2706 0,-13.764 -1.163489,-23.26588 -3.084059,-25.18646 -1.901151,-1.90117 -11.231002,-3.08406 -24.325076,-3.08406 -25.709827,0 -26.56193,0.96745 -26.56193,30.15762 0,12.2964 -1.208156,21.4235 -3.084059,23.2994 -4.113412,4.1135 -11.023779,3.9072 -14.628827,-0.4366 z m 112.250014,-3.5469 c -2.49279,-2.859 -5.10787,-15.2658 -7.17775,-34.0532 -1.79092,-16.25559 -4.01191,-33.60344 -4.93544,-38.55079 l -1.6792,-8.99518 -26.879595,-1.34292 c -44.689744,-2.23276 -46.847474,-5.32263 -45.682812,-65.41807 0.904253,-46.65862 1.915085,-49.57378 19.81512,-57.14505 l 8.722117,-3.6892 -8.23424,-5.00754 c -17.886238,-10.87726 -19.920215,-35.21989 -4.251998,-50.88808 7.749329,-7.74934 10.637858,-8.96567 21.279613,-8.96069 14.977256,0.008 24.42786,5.66892 30.372545,18.19641 8.34382,17.58328 -1.19257,41.28962 -18.340969,45.59361 -7.234446,1.81571 -8.029018,5.63926 -1.596146,7.68098 2.501055,0.79379 9.729326,8.3419 16.062825,16.77357 15.71006,20.91449 23.45709,24.90583 40.43553,20.83276 16.24432,-3.89694 23.76601,-0.82568 23.76601,9.70416 0,3.90815 -1.44565,8.63506 -3.21257,10.50424 -2.65702,2.81081 1.37282,3.14343 23.30318,1.92342 17.02225,-0.94696 26.21185,-0.56345 25.667,1.07115 3.40212,1.50047 -11.11542,2.99265 -47.02927,3.63313 -42.40455,0.75624 -46.88026,0.67405 -54.72699,-3.95565 -4.70055,-2.77339 -9.058611,-5.04254 -9.68459,-5.04254 -0.625945,0 -1.138104,7.5174 -1.138104,16.70534 l 0,16.70533 16.646074,0 c 24.43502,0 23.42831,-2.5268 32.54328,81.68091 2.61235,24.1342 2.4635,26.8633 -1.71741,31.4831 -5.67308,6.2687 -17.09918,6.5557 -22.32621,0.5608 z m 39.10556,-54.61362 0,-53.97109 -11.1669,0 c -12.1435,0 -19.67372,-5.53699 -19.67372,-14.46615 0,-10.82652 2.86674,-11.23436 78.96658,-11.23436 l 72.79846,0 -3.98708,-7.71016 c -2.19289,-4.24058 -3.41606,-7.71015 -2.71813,-7.71015 0.69792,0 2.82248,2.96502 4.72123,6.58892 1.89876,3.6239 6.27265,7.98764 9.71976,9.69724 7.07908,3.51082 9.76681,15.21483 4.85349,21.135 -1.81628,2.18847 -7.6659,3.69966 -14.32097,3.69966 l -11.25056,0 0,53.97109 0,53.97112 -53.97108,0 -53.97108,0 z m 60.39621,-84.8117 c 0.87361,-1.41353 4.73815,-2.57006 8.58783,-2.57006 l 6.99946,0 -0.84655,-50.75852 -0.84658,-50.75852 6.54569,7.21095 c 5.82428,6.41621 6.54569,9.39406 6.54569,27.01862 0,17.88024 0.54653,20.05455 5.61636,22.34465 3.089,1.39533 6.04744,4.27176 6.57429,6.39205 0.65401,2.63196 4.58412,11.48684 2.64039,8.41622 -5.15295,-8.14069 -14.095,-14.17784 -15.78915,-1.34858 -0.88665,6.71426 -2.31685,16.54471 -3.1782,21.84544 -1.46692,9.027 -1.15082,9.63769 4.98849,9.63769 3.60504,0 7.26939,1.15653 8.143,2.57006 1.00582,1.62745 -5.59233,2.57005 -17.99036,2.57005 -12.39805,0 -18.99618,-0.9426 -17.99036,-2.57005 z m 48.02847,-18.72702 c -0.93172,-1.50756 -7.7627,-14.78986 -7.08901,-15.46355 0.67366,-0.67369 14.45257,25.64552 15.28962,27.82678 1.73781,4.52871 -5.66628,-8.26281 -8.20061,-12.36323 z"
       style="fill:#111" />
  </g>
</svg>
