<?xml version="1.0" encoding="UTF-8"?>
<!DOCTYPE svg PUBLIC "-//W3C//DTD SVG 1.1//EN" "http://www.w3.org/Graphics/SVG/1.1/DTD/svg11.dtd">
<!-- Creator: CorelDRAW 2017 -->
<svg xmlns="http://www.w3.org/2000/svg" xml:space="preserve" width="70.13mm" height="26.4403mm" version="1.1" style="shape-rendering:geometricPrecision; text-rendering:geometricPrecision; image-rendering:optimizeQuality; fill-rule:evenodd; clip-rule:evenodd"
viewBox="0 0 7729 2914"
 xmlns:xlink="http://www.w3.org/1999/xlink">
 <defs>
  <style type="text/css">
   <![CDATA[
    .fil2 {fill:#43342B}
    .fil1 {fill:#5CB462}
    .fil0 {fill:#FAC100}
   ]]>
  </style>
 </defs>
 <g id="Слой_x0020_1">
  <metadata id="CorelCorpID_0Corel-Layer"/>
  <path class="fil0" d="M1971 2c25,8 53,7 78,10 150,21 268,89 336,227 89,181 74,407 -87,562 -41,40 -86,72 -139,93 -13,6 -15,9 -7,22 95,138 188,276 283,413 4,7 10,14 13,22 13,32 -4,58 -39,58 -66,0 -131,0 -197,0 -18,0 -35,0 -53,0 -41,1 -73,-14 -95,-47 -23,-34 -46,-68 -69,-102 -58,-88 -117,-176 -176,-263 -13,-19 -20,-41 -20,-63 -1,-74 -1,-149 -1,-223 0,-34 18,-51 53,-52 39,-1 78,2 116,-10 65,-21 116,-58 133,-128 25,-96 -37,-190 -138,-212 -20,-4 -41,-7 -62,-7 -86,0 -172,0 -257,0 -17,0 -20,4 -20,20 0,336 0,672 0,1008 0,9 0,19 0,28 -2,32 -18,51 -48,51 -79,1 -158,1 -237,0 -26,0 -41,-14 -45,-41 -2,-10 -2,-21 -2,-31 0,-420 0,-840 0,-1260 0,-3 0,-7 0,-10 -1,-31 8,-55 41,-64l638 0 0 -2z"/>
  <path class="fil1" d="M337 503c0,62 0,123 0,185 0,13 4,17 17,17 63,-1 126,0 188,0 33,0 65,-2 96,-12 71,-21 121,-63 138,-136 17,-73 4,-140 -52,-194 -45,-42 -101,-56 -161,-57 -71,-2 -141,0 -213,-1 -12,0 -14,4 -14,14 0,62 0,123 0,185l1 -1zm265 -500c15,8 33,6 50,7 117,15 225,51 313,133 65,61 106,137 125,224 23,104 21,208 -13,309 -47,142 -149,231 -289,279 -64,22 -130,32 -198,35 -78,3 -156,1 -235,1 -13,0 -18,3 -18,17 1,107 0,214 0,321 0,6 0,11 0,18 -1,45 -18,62 -63,62 -69,0 -139,0 -209,0 -45,0 -63,-18 -63,-63 0,-427 0,-854 0,-1281 0,-31 12,-52 41,-63l559 0 1 2z"/>
  <path class="fil2" d="M7728 293c-26,36 -60,67 -90,100 -100,109 -202,218 -302,327 -9,9 -9,15 -2,26 121,198 241,397 361,595 3,7 8,13 10,20 9,25 -6,46 -32,46 -69,0 -140,-1 -209,0 -35,0 -62,-13 -80,-42 -20,-30 -37,-62 -56,-93 -65,-109 -130,-217 -194,-326 -2,-4 -6,-9 -9,-14 -35,36 -69,73 -104,108 -6,6 -4,12 -4,20 0,96 0,192 0,288 0,8 0,15 -1,22 -2,22 -15,36 -39,36 -65,1 -129,1 -194,0 -24,0 -36,-13 -39,-36 -1,-8 -1,-15 -1,-24 0,-343 0,-685 0,-1028 0,-9 0,-18 1,-25 2,-20 14,-33 35,-33 67,-2 133,-2 201,0 21,1 33,14 35,35 1,8 1,17 1,24 0,119 0,239 0,358l0 17c8,-1 10,-8 14,-11 110,-121 220,-242 331,-364 54,-61 54,-61 136,-61 66,0 131,0 197,0 14,0 28,1 35,15l0 21 -1 -2z"/>
  <path class="fil2" d="M5438 913l0 -23c0,-190 0,-378 0,-568 0,-8 0,-15 0,-22 3,-28 15,-41 43,-41 61,-1 122,-1 183,0 30,0 42,14 44,44 0,6 0,11 0,18 0,342 0,683 0,1025 0,6 0,10 0,15 -1,33 -15,47 -50,47 -52,0 -102,-1 -154,0 -34,1 -56,-13 -74,-41 -37,-61 -76,-122 -114,-183 -86,-139 -172,-278 -257,-417 -2,-4 -6,-8 -11,-17l0 23c0,190 0,379 0,569 0,8 0,17 -1,24 -3,26 -18,40 -45,40 -62,0 -123,0 -185,0 -29,0 -42,-13 -44,-42 -1,-7 -1,-13 -1,-21 0,-342 0,-683 0,-1025 0,-4 0,-8 0,-12 1,-37 12,-50 50,-51 55,-1 111,0 166,0 31,0 51,17 66,41 58,94 117,187 175,282 65,105 130,209 195,314 3,4 6,9 11,19l2 0z"/>
  <path class="fil2" d="M2436 2282c60,0 119,0 179,0 37,0 50,12 51,48 0,79 2,158 0,237 -4,118 -64,205 -161,267 -84,54 -177,79 -278,79 -118,1 -228,-25 -323,-97 -84,-63 -126,-149 -127,-253 -1,-134 1,-270 0,-404 -1,-147 64,-255 192,-319 199,-99 396,-87 577,43 82,58 123,142 119,245 -1,25 -8,34 -33,35 -61,1 -121,1 -182,1 -19,0 -32,-10 -35,-29 -11,-68 -57,-102 -120,-119 -50,-13 -99,-15 -148,3 -67,26 -105,77 -106,148 -3,122 -2,245 0,367 1,74 56,132 133,145 41,7 82,6 122,-7 62,-19 95,-62 105,-125 7,-41 6,-41 -36,-41 -35,0 -71,0 -106,0 -37,0 -50,-12 -51,-48 0,-43 0,-86 0,-129 0,-35 13,-48 48,-48 1,0 2,0 3,0 58,0 118,0 176,0l-1 0z"/>
  <path class="fil2" d="M260 2345l0 102c0,66 0,131 0,197 0,7 -3,15 10,14 62,-2 125,3 186,-3 87,-9 144,-71 145,-159 1,-101 1,-202 0,-303 -1,-89 -58,-150 -147,-160 -60,-7 -120,-1 -180,-3 -14,0 -17,4 -17,17 0,99 0,197 0,296l1 1zm-259 505c0,-336 0,-672 0,-1010 4,-29 15,-39 44,-39 134,0 269,-3 402,1 121,4 231,45 320,132 62,61 95,136 95,222 1,129 3,258 -1,387 -4,119 -66,207 -166,269 -80,50 -169,74 -263,75 -126,1 -251,0 -377,0 -3,0 -7,0 -10,0 -29,-1 -40,-11 -44,-39l1 1z"/>
  <path class="fil2" d="M4210 972c-43,-128 -86,-253 -129,-378 -1,0 -2,0 -3,0 -43,126 -86,251 -129,379l260 0 1 -1zm284 435c-30,0 -61,0 -90,0 -32,0 -46,-9 -57,-40 -17,-45 -33,-89 -48,-136 -4,-11 -9,-15 -22,-15 -132,0 -265,0 -396,0 -12,0 -18,3 -22,15 -14,44 -30,87 -46,130 -13,35 -26,44 -64,44 -58,0 -117,0 -175,0 -43,0 -52,-13 -37,-54 61,-164 121,-328 183,-493 67,-181 134,-361 202,-542 2,-7 6,-14 9,-21 12,-25 32,-40 61,-40 58,0 118,0 176,0 31,0 52,15 63,42 18,42 33,84 48,126 114,309 227,617 342,926 1,3 3,8 4,11 10,30 -1,45 -33,45 -32,0 -64,0 -96,0l0 1z"/>
  <path class="fil2" d="M5001 2477c-41,-120 -82,-239 -123,-363 -42,125 -83,244 -123,363l247 0zm270 412c-29,0 -57,0 -86,0 -32,0 -45,-9 -56,-40 -15,-42 -31,-85 -45,-127 -3,-9 -7,-13 -18,-13 -126,0 -251,0 -377,0 -11,0 -17,3 -20,13 -13,41 -29,82 -43,122 -12,35 -25,43 -63,43 -55,0 -111,0 -166,0 -36,0 -46,-14 -34,-48 46,-125 93,-249 139,-375 75,-202 150,-403 224,-605 6,-14 11,-29 21,-41 11,-12 25,-19 43,-19 57,0 116,0 173,0 29,0 46,17 56,41 15,36 29,74 42,111 108,292 215,585 324,877 14,37 12,61 -40,57 -25,-1 -51,0 -75,0l1 2z"/>
  <path class="fil2" d="M3074 682c7,-3 8,-10 11,-15 64,-121 128,-241 191,-363 15,-31 37,-46 73,-46 62,1 122,0 183,0 41,0 53,22 34,57 -90,169 -181,337 -272,506 -25,47 -51,95 -76,141 -6,10 -8,21 -8,32 0,117 0,234 0,349 0,8 0,17 -1,24 -2,24 -15,39 -39,39 -66,1 -131,1 -197,0 -23,0 -35,-13 -39,-35 -1,-9 -1,-19 -1,-28 0,-116 0,-233 0,-348 0,-13 -2,-25 -10,-37 -119,-213 -238,-425 -357,-638 -2,-4 -4,-8 -7,-12 -14,-29 -1,-51 31,-51 68,0 136,1 204,0 34,0 56,15 72,44 22,42 45,84 68,126 44,80 88,161 131,241 2,4 6,9 8,13l1 1z"/>
  <path class="fil2" d="M6082 835c0,-105 0,-210 0,-315 0,-15 -4,-19 -19,-19 -29,1 -58,1 -87,0 -36,-1 -51,-14 -52,-52 -1,-45 0,-90 0,-136 0,-44 13,-57 57,-57 140,0 280,0 420,0 23,0 45,0 68,1 28,1 42,14 42,42 1,53 1,106 0,160 -1,29 -17,41 -47,42 -31,1 -62,1 -93,0 -12,0 -14,3 -14,15 0,212 0,424 0,636 0,13 4,15 17,15 31,-1 62,0 93,0 36,0 51,13 51,48 1,50 1,98 0,148 0,30 -15,44 -45,44 -169,0 -337,0 -506,0 -28,0 -43,-12 -44,-40 -2,-53 -2,-106 0,-160 1,-28 17,-41 45,-41 34,-1 67,-1 101,0 12,0 14,-3 14,-14 0,-106 0,-213 0,-319l-1 0z"/>
  <path class="fil2" d="M3831 2448c0,-131 0,-263 0,-395 0,-14 -3,-18 -18,-18 -78,1 -156,0 -235,0 -36,0 -50,-12 -51,-48 -1,-45 -1,-90 0,-136 0,-36 13,-48 51,-48 255,0 508,0 763,0 37,0 50,12 50,48 0,45 0,91 0,137 0,34 -13,47 -48,47 -78,0 -156,0 -235,0 -14,0 -18,4 -18,18 0,257 0,515 0,771 0,57 -8,65 -65,65 -50,0 -98,0 -148,0 -35,0 -47,-13 -47,-50 0,-84 0,-166 0,-250l0 -142 1 0z"/>
  <path class="fil2" d="M1183 2346c0,-99 0,-198 0,-299 0,-12 -2,-17 -15,-17 -30,1 -60,1 -89,0 -29,0 -43,-14 -43,-43 0,-48 0,-96 0,-144 0,-29 14,-42 43,-42 156,0 313,0 469,0 29,0 43,14 43,44 0,47 0,95 0,142 0,30 -14,43 -45,44 -30,0 -60,0 -89,0 -10,0 -13,2 -13,13 0,202 0,403 0,605 0,11 4,13 14,13 32,0 63,0 95,0 30,0 43,12 44,41 1,48 1,97 0,145 -1,29 -14,40 -43,40 -159,0 -317,0 -476,0 -30,0 -43,-14 -43,-43 0,-47 0,-94 0,-141 0,-29 14,-42 43,-42 32,0 63,-1 95,0 12,0 14,-3 14,-15 0,-100 0,-202 0,-302l-3 0z"/>
  <path class="fil2" d="M2983 2346c0,-99 0,-198 0,-299 0,-13 -3,-18 -17,-17 -29,1 -58,1 -87,0 -30,0 -44,-14 -44,-44 0,-47 0,-95 0,-142 0,-29 14,-43 44,-43 156,0 312,0 468,0 30,0 43,14 44,44 0,47 0,94 0,141 0,30 -14,44 -44,44 -30,0 -61,0 -90,0 -10,0 -12,3 -12,12 0,202 0,403 0,605 0,12 4,13 14,13 31,0 62,0 93,0 30,0 43,11 44,40 1,50 1,98 0,148 -1,28 -14,39 -42,39 -160,0 -319,0 -478,0 -29,0 -42,-14 -43,-42 0,-47 0,-94 0,-141 0,-29 14,-43 44,-43 30,0 60,-1 89,0 17,1 19,-6 19,-20 -1,-99 0,-197 0,-296l-2 1z"/>
  <path class="fil2" d="M5535 2346c0,-161 0,-321 0,-482 0,-8 0,-14 1,-22 3,-29 14,-40 43,-40 57,0 116,0 173,0 28,0 41,12 43,41 1,8 0,14 0,22 0,258 0,516 0,774 0,15 4,20 20,20 147,-1 294,0 441,0 7,0 12,0 19,0 33,2 44,14 44,47 0,46 0,93 0,139 0,32 -13,45 -45,45 -231,0 -463,0 -694,0 -29,0 -42,-12 -44,-41 -1,-8 -1,-14 -1,-22 0,-160 0,-320 0,-481l1 -1z"/>
 </g>
</svg>
