<svg xmlns="http://www.w3.org/2000/svg" xmlns:xlink="http://www.w3.org/1999/xlink" width="122.201" height="153.665"><defs><linearGradient id="b" gradientUnits="userSpaceOnUse" x1="1819.912" y1="-1325.825" x2="1896.17" y2="-1212.768" gradientTransform="translate(-1692 1584)"><stop offset="0" stop-color="#144b4d"/><stop offset="1" stop-color="#0f2324"/></linearGradient><clipPath id="g"><path d="M175.915 383.545s8.5 2.5 18-4.5c5.248-3.867 54.5-77 24.5-110.5-13.826-14.508-33.16-20.675-58-18.5-33.354 7.478-52.022 29.145-56 65-5.219 33.555 24.65 49.672 71.5 68.5z"/></clipPath><linearGradient gradientTransform="translate(-1692 1584)" y2="-1266.955" x2="1915.415" y1="-1266.955" x1="1863.664" gradientUnits="userSpaceOnUse" id="c"><stop offset="0" stop-color="#009047"/><stop offset="1" stop-color="#347052"/></linearGradient><linearGradient gradientTransform="translate(-1692 1584)" y2="-1313.216" x2="1924.785" y1="-1222.643" x1="1851.441" gradientUnits="userSpaceOnUse" id="d"><stop offset="0" stop-color="#15874e"/><stop offset="1" stop-color="#91d7b4"/></linearGradient><linearGradient id="e" gradientUnits="userSpaceOnUse" x1="1781.39" y1="-1284.295" x2="1884.062" y2="-1217.619" gradientTransform="translate(-1692 1584)"><stop offset="0" stop-color="#51b8ed"/><stop offset=".68" stop-color="#095e8a"/><stop offset="1" stop-color="#053752"/></linearGradient><linearGradient id="f" gradientUnits="userSpaceOnUse" x1="1831.758" y1="-1330.278" x2="1896.244" y2="-1208.998" gradientTransform="translate(-1692 1584)"><stop offset="0" stop-color="#00aab0"/><stop offset=".789" stop-color="#005f62"/><stop offset="1" stop-color="#144b4d"/></linearGradient><linearGradient id="a"><stop offset="0" stop-color="#4b2202"/><stop offset="1" stop-color="#4b2202" stop-opacity="0"/></linearGradient><radialGradient xlink:href="#a" id="m" gradientUnits="userSpaceOnUse" gradientTransform="matrix(-4.45866 1.2521 -4.65437 -16.57386 -2090.601 -5808.855)" cx="-201.235" cy="-385.812" fx="-201.235" fy="-385.812" r="9.154"/><linearGradient xlink:href="#b" id="h" gradientUnits="userSpaceOnUse" gradientTransform="translate(-1692 1584)" x1="1819.912" y1="-1325.825" x2="1896.17" y2="-1212.768"/><linearGradient xlink:href="#c" id="i" gradientUnits="userSpaceOnUse" gradientTransform="translate(-1692 1584)" x1="1863.664" y1="-1266.955" x2="1915.415" y2="-1266.955"/><linearGradient xlink:href="#d" id="j" gradientUnits="userSpaceOnUse" gradientTransform="translate(-1692 1584)" x1="1851.441" y1="-1222.643" x2="1924.785" y2="-1313.216"/><linearGradient xlink:href="#e" id="k" gradientUnits="userSpaceOnUse" gradientTransform="translate(-1692 1584)" x1="1781.39" y1="-1284.295" x2="1884.062" y2="-1217.619"/><linearGradient xlink:href="#f" id="l" gradientUnits="userSpaceOnUse" gradientTransform="translate(-1692 1584)" x1="1831.758" y1="-1330.278" x2="1896.244" y2="-1208.998"/></defs><g clip-rule="evenodd" fill-rule="evenodd"><path clip-path="url(#g)" d="M168.415 245.545c-20.817 57.379-14.984 103.38 17.5 138l-5 3c-43.363-27.867-78.25-82.5-58-125l45.5-16z" fill="url(#h)" transform="rotate(-4.4 -3130.178 1549.768)"/><path clip-path="url(#g)" d="M198.665 250.295c-38 74.5-31.415 120.687-7.75 133.5l1-4.25c-.5-39 7.75-67 31.5-108.5l-24.75-20.75z" fill="url(#i)" transform="rotate(-4.4 -3130.178 1549.768)"/><path clip-path="url(#g)" d="M238.665 275.545c-1-.5-44.5-25.5-44.5-25.5 20 45 17 88.5-8.25 132.75l11.25-.75c29.35-30.084 43.184-65.585 41.5-106.5z" fill="url(#j)" transform="rotate(-4.4 -3130.178 1549.768)"/><path clip-path="url(#g)" d="M180.915 383.545c-60.509-43.533-62.487-63.768-72.75-112.75l-16.75 65.5c13.628 17.546 42.046 34.963 85.25 52.25l4.25-5z" fill="url(#k)" transform="rotate(-4.4 -3130.178 1549.768)"/><path clip-path="url(#g)" d="M184.415 385.545c12.5-12.75 29-96.5-21.25-138.5-17.913 1.176-33.497 10.176-46.75 27 43.709 36.221 63.5 67.25 63.75 111.75l4.25-.25z" fill="url(#l)" transform="rotate(-4.4 -3130.178 1549.768)"/></g><path d="M614.282 337.39l-14.7 4.237c-.358.104-.666-.126-.832-.459l-5.713-11.415c-.166-.333.103-.728.46-.831l19.17-5.529c.357-.103.795.09.831.46l1.243 12.705c.037.37-.101.728-.46.831z" fill="url(#m)" fill-rule="evenodd" transform="translate(-513.936 -187.987)"/></svg>