<svg version="1" xmlns="http://www.w3.org/2000/svg" width="1642.667" height="1642.667" viewBox="0 0 1232.000000 1232.000000"><path d="M572.5 6.8c-.2.2-2.1.5-4.2.7-2.1.2-3.8.4-3.8.5 0 .1-1.1.3-2.5.5-1.4.1-4.3.5-6.5.9s-6 1-8.5 1.3c-7 .7-9.5 1.1-9.5 1.3 0 .1-1.1.3-2.5.6-1.4.2-3.2.7-4 1.1-.8.3-1.9.7-2.5.8-4.1 1-37.8 12.7-43.5 15.2-.8.3-1.7.7-2 .8-1.1.4-4.7 1.8-8.7 3.6-2.4 1-4.3 1.5-4.3 1.2 0-.3-.6-.1-1.2.5-.7.5-6.2 3.1-12.3 5.7-6 2.6-15.6 6.9-21.1 9.6-5.6 2.7-10.6 4.9-11.2 4.9-.6 0-1.2.3-1.4.7-.1.5-2.1 1.7-4.3 2.8-5.8 2.9-20.4 10.9-24.5 13.3-5.3 3.2-11.5 6.5-11.8 6.3-.1-.1-.9.5-1.7 1.3-.8.8-4.3 3.1-7.7 5.2-3.5 2.1-6.5 4-6.8 4.3-1.2 1.4-10.1 7.1-11 7.1-.6 0-1 .4-1 .9s-.8 1.2-1.8 1.5c-1 .4-2.7 1.4-3.8 2.4-1 1-3.5 2.8-5.4 4.2-4.8 3.3-26.6 20.6-29 23-1.1 1.1-2.2 2-2.4 2-.5 0-9.1 7.8-19.3 17.5-4.7 4.4-8.9 8.1-9.4 8.3-.5.2-.9.7-.9 1.1 0 .4-3.7 4.6-8.2 9.3-4.6 4.8-9.7 10.4-11.4 12.5-1.8 2.1-4.4 5.1-5.8 6.6-1.4 1.5-2.6 3.2-2.6 3.8 0 .5-.3.9-.7.9-.5 0-3.9 4.2-7.8 9.3-3.8 5-7.2 9.4-7.6 9.7-.6.5-10.4 14.5-13.1 18.8-.9 1.5-2 3.1-2.5 3.7-4.1 5.1-8.2 13.7-8.7 18.5-.8 7.8-1.8 18.5-2.1 25.5-.5 8.6-.5 48 0 54.5.2 3 .7 9.5 1 14.5.3 4.9.8 10.1 1 11.5.2 1.4.7 5.3 1 8.7.3 3.4.8 7 1 8.1.2 1 .6 4.3 1 7.2.4 2.9.9 6.2 1.1 7.4.2 1.2.7 4.1 1 6.6.3 2.5.7 5.3 1 6.2.3.9.6 2.5.8 3.5 1.5 8.5 2.4 13.1 3.2 16.3.3 1.4.7 3.4.9 4.5.5 2.5 1.8 8.3 3.9 16.5.2.8 1 3.7 1.7 6.5.6 2.7 1.6 5.6 2.2 6.2.5.7.7 1.3.4 1.3-.6 0 2.2 10.7 6.1 22.7 1.6 5.1 2.7 9.3 2.5 9.3-.3 0 0 .6.6 1.4.7.8 1.4 2.5 1.7 3.7.8 3.9 1.2 5.4 1.4 5.6.2.2.3.6.5 1 .2.9 1.4 4 2.5 6.8 1.7 4.2 3.5 9 3.5 9.5.3 2.9 17.8 44.5 25.3 60 3 6.3 5.6 11.7 5.7 12 .6 2.6 8.6 17.8 26.5 50.5 1.8 3.3 3.9 6.7 4.6 7.6.8.8 1.4 1.8 1.4 2.2 0 1.9 23.7 39.2 38.2 60 5.7 8.1 10.8 15.6 11.3 16.5.6.9 1.2 1.9 1.6 2.2.3.3 2.1 2.7 4 5.5 1.8 2.7 3.7 5.2 4 5.5 1 .8 16.9 22.1 16.9 22.6 0 .2.8 1.2 1.8 2.2 1.8 1.9 5.5 6.4 10 12.1 3.4 4.3 18.2 22.2 19.6 23.7 2 2.1 12.1 13.8 13.9 16.1 1 1.3 1.5 2.3 1 2.3-1.1 0-51.5-51-58.3-59-3-3.6-6.4-7.4-7.5-8.6-1.1-1.1-4-4.4-6.5-7.3-2.5-2.9-5-5.8-5.5-6.4-.6-.7-4.2-5-7.9-9.7-3.8-4.7-7.2-8.7-7.6-9-.3-.3-1.7-2.1-3-4s-2.9-4-3.5-4.7c-3-3.6-12.8-16.8-17.6-23.8-1.9-2.8-3.6-5.2-3.9-5.5-.3-.3-2.3-3.1-4.4-6.3-2.2-3.1-4.2-5.7-4.6-5.7-.4 0-.7-.6-.7-1.3 0-.6-2.1-4.2-4.6-8-2.6-3.7-4.7-7.2-4.7-7.7 0-.6-.4-1-1-1-.5 0-1-.6-1-1.3 0-.6-1.4-3-3-5.1-1.7-2.2-3-4.2-3-4.6 0-.3-3.6-6.6-8-14s-8-14-8-14.6c0-.7-.3-1.4-.7-1.6-.5-.2-1.9-2.6-3.2-5.3-1.4-2.8-2.7-5.2-3-5.5-1.1-.9-13.5-26.5-13.3-27.3.1-.4-.3-.7-.8-.7-.6 0-1-.4-1-1 0-.9-2.5-6.5-8.8-20-1.4-3-2.5-5.8-2.4-6.3.1-.4-.2-.7-.6-.7-.5 0-.9-.6-.9-1.3 0-.7-.9-3.3-2.1-5.8-3.3-6.8-11.2-25.9-11.2-27 0-.5-.4-1.7-.9-2.7-1.3-2.6-2.7-5.9-6.1-15.2-1.8-4.7-3.6-9.4-4-10.5-1.9-4.7-4.3-11.4-6.7-18.5-1.3-4.1-2.9-8.4-3.4-9.5-1.3-3-19.6-58.8-20.4-62.5-.5-2.1-4.5-15.2-5.2-17-.3-.8-.7-2-.8-2.5-.8-3.4-8.7-27.6-9-27.3-.1.1-2.2 6.1-4.5 13.3-2.3 7.1-4.5 13.7-4.8 14.5-.7 2.1-1 3.1-1.6 5.8-.3 1.2-.7 2.6-1 3-.3.5-.7 1.9-1 3.3-.3 1.3-1.2 4.9-2.1 7.9-.9 3-1.8 6.4-2 7.5-.9 3.8-1.4 6-3 12-.8 3.3-1.7 6.9-2 8-1.1 4.7-6.7 33.3-7.1 36-.2 1.6-.6 4.6-1 6.5-1 6.4-1.3 8.5-1.9 12.2-.3 2.1-.8 5.5-1.1 7.5-.3 2.1-.7 5.6-.9 7.8-.2 2.2-.4 4-.5 4-.1 0-.3 2.2-.6 5-.2 2.7-.6 6.8-.9 9-1.4 11.1-3.6 43-3.9 55.2-.1 2.4-.5 4.3-1.1 4.3-.5 0-.5.4.1 1s.7 3.3.4 6.8c-.8 6.9-.5 48.2.4 57.2.7 6.6 3.3 25.6 4.1 30.1 1 5 1.4 7.1 1.9 8.7.5 1.7 1.4 5.9 2.1 9.7.2 1.1 1 4.1 1.8 6.7.8 2.6 1.2 4.9.9 5.2-.3.4.1.6.8.6.7 0 1.1.3.7.6-.3.4.1 2.3.9 4.3s1.5 3.7 1.5 3.8c-.1.2-.1.4 0 .5 0 .2.2 1 .4 1.8 1.6 7.2 15.3 37.7 23.2 51.4 4.9 8.4 17.7 27.6 20.2 30.3 1.2 1.2 2.1 2.5 2.1 2.8 0 .8 7.1 9.5 14.9 18.5 8.5 9.7 40.2 41 41.6 41 .5 0 4.6 3.3 7.4 6.1.9.8 3.9 3.3 6.6 5.5 2.8 2.1 5.2 4.2 5.3 4.6.2.5.8.8 1.4.8 1 0 10.1 7 10.6 8.2.2.5 1 .8 1.8.8s1.7.7 2 1.5c.4.8 1.2 1.5 1.8 1.5.7 0 2.1.8 3.2 1.8 3 2.7 28.2 19.2 29.4 19.2.5 0 1 .4 1 1 0 .5.4 1 .9 1 1.2 0 11.5 6.3 11.9 7.2.2.5.8.8 1.2.8.5 0 3.3 1.4 6.2 3.1 6.9 4.1 12 7 18.8 10.5 3 1.6 5.7 3.1 6 3.4.3.3 4.6 2.5 9.5 5 5 2.5 9.2 4.7 9.5 5 .5.5 14 7.2 15 7.5.3.1 4.3 2 9 4.2 14 6.7 28.2 13.3 28.5 13.3.1 0 3.7 1.6 7.9 3.5s8 3.5 8.4 3.6c.4 0 1.3.5 2 1.1.6.6 1.2.7 1.2.3 0-.4.7-.1 1.6.6.9.7 2.1 1.4 2.8 1.5.7.1 3.2 1.1 5.6 2.2 2.5 1.1 8.6 3.6 13.5 5.7 5 2 10.4 4.4 12 5.3 1.7.9 3 1.4 3 1.2 0-.5 9.6 3.3 18.2 7.1 2.4 1.1 4.6 1.9 5 1.9.5 0 4.9 1.6 9.8 3.6 11.1 4.4 41.4 15.4 43.8 15.9.9.2 2.2.7 2.9 1.1 1.1.7 11.7 4.6 21.8 8 2.5.8 5.4 1.9 6.5 2.4 2.1.9 55.2 19 57 19.3.6.2 1.5.6 2.1.9.6.4 2.1.9 3.5 1.2 1.3.3 7.1 2.1 12.8 4.1 5.7 1.9 11.4 3.7 12.5 3.9 1.2.2 3.2.9 4.6 1.5 2.9 1.2 45.7 14.9 49.2 15.7 7.4 1.8 10.6 2 22.8 1.9 13-.2 26.3-1.4 27.8-2.5.1-.2 1.1-.4 2.2-.5 1.1-.1 2.2-.4 2.5-.5.3-.1 1.4-.4 2.5-.5 1.1-.1 2.1-.3 2.3-.4.1-.2 1.3-.5 2.7-.7 3.4-.6 13.4-4.1 19.5-6.9 7.1-3.1 11.3-4.7 12.1-4.5.4.1 1-.3 1.4-1 .4-.6 1.3-1.2 2.1-1.3 3.1-.5 24.8-13.7 28.7-17.4.7-.7 1.6-1.3 2-1.3.4 0 2.1-1.3 3.9-2.8 6.2-5.3 7.3-6.2 8.5-6.2.6 0 .9-.2.6-.5-.3-.3 1.1-2.2 3.1-4.3 5.5-5.7 7.5-8.4 14.8-19.5 3.8-5.6 7.1-10.4 7.6-10.5.4-.2.7-.8.7-1.2 0-.5 2.7-5.4 6-10.8 3.3-5.5 6-10.5 6-11.1 0-.6.4-1.1.9-1.1s1.6-1.5 2.5-3.2c.9-1.8 2.7-5.1 4.1-7.3 1.3-2.2 3.5-6.1 4.9-8.8 1.4-2.6 3.8-6.8 5.3-9.4 2.9-4.9 3.6-6.3 13.9-26 13.8-26.5 15.2-29.3 14.7-29.3-.2 0 .5-1.3 1.6-2.9 1.2-1.6 2.1-3.6 2.1-4.4 0-.8.7-2 1.5-2.7.8-.7 1.5-1.6 1.5-2.1 0-.4 2.5-6.1 5.6-12.6 7.4-15.5 9.7-20.5 18.7-40.8 10.1-23 11-24.9 11.2-25.5.3-.9 1.8-4.4 3.5-8.5.9-2.2 2.3-5.6 3-7.5.7-1.9 2.1-5.3 3.1-7.5.9-2.2 3-7.4 4.7-11.5 1.6-4.1 3.3-8.4 3.7-9.5.5-1.1.9-2.5 1-3 .1-.6.9-2.8 1.9-5 1-2.2 1.9-4.5 2-5 .2-.6.8-2.4 1.5-4 1.6-3.9 4.9-12.8 6.8-18.5.8-2.5 1.8-5.4 2.3-6.5 2.4-5.8 6.9-19 7.1-21 0-.6.4-1.5.8-2 .7-.8 1.7-3.8 2.6-7.5 0-.3 1.9-6.1 4.2-13 2.2-6.9 5.1-15.9 6.3-20 1.2-4.1 3.1-10.1 4.1-13.4 1-3.2 1.6-6.2 1.3-6.7-.3-.5-.1-.9.5-.9.8 0 2.4-5.8 2.6-9.5 0-.6.4-1.5.7-2.1.4-.6.9-2.1 1.2-3.5.3-1.3.9-3.9 1.5-5.7.5-1.7.8-3.2.5-3.2-.2 0 .3-1.7 1.1-3.8 1.8-4.6 11.8-47.3 13-55.5.2-1.8.9-5 1.4-7.1.5-2.2.9-4.2.9-4.5 0-.3.1-.9.2-1.4.4-1.1.5-1.9 1.5-7.2.4-2.8 1-5.7 1.1-6.5.2-.8.6-3.3.9-5.5.2-2.2.7-5.5 1-7.3.3-1.7.7-4.7 1-6.5.2-1.7.7-5 1.1-7.2.8-4.7 1.2-8.2 1.9-15 .5-4.8.8-7.4 2-17.5.5-4.7 1-9.5 2.2-25 1.6-19.2.7-82.1-1.2-91.5-.2-1.1-.7-4.9-1-8.4-.3-3.5-.7-7.3-1-8.5-.7-3.4-1.7-10.9-1.9-13.9 0-1.5-.3-2.7-.6-2.7s-.5-1.2-.5-2.8c.1-1.5-.2-3.2-.6-3.7-.3-.6-.9-2.6-1.2-4.5-1.4-8-2-11.1-3.3-15.5-.4-1.3-1.3-5-1.8-7.3-.2-.9-1.2-4.4-2.2-7.7-1-3.3-1.9-6.5-2-7-.4-1.7-6.5-18.8-7.8-22-.7-1.7-2.6-6.2-4.2-10-5.5-13.6-17.5-35.7-27.6-50.9-11.2-16.7-32.1-40.2-44.7-50.4-2.5-2-6.3-5.2-8.3-7.1-2.1-1.9-4.8-4.1-6-4.9-1.3-.9-2.5-1.8-2.8-2.1-.3-.4-2.3-1.9-4.5-3.6-2.2-1.6-4.6-3.5-5.3-4.2-.7-.7-1.7-1.3-2.1-1.3-.4 0-1.6-.8-2.7-1.8-1-1-8.2-5.9-15.9-11-7.7-5.1-14.5-9.7-15.2-10.2-.7-.6-1.4-1-1.6-1-.4 0-17.1-9.3-19.7-11-2.8-1.9-24.7-12.4-39-18.7-3.8-1.7-8.1-3.4-10-3.8-.9-.2-6.5-2.7-9-4-1.4-.7-2.8-1.4-3.2-1.4-.5-.1-.9-.1-1-.2-.2 0-1.2-.2-2.3-.4-1-.2-2.8-.8-4-1.3-5.7-2.6-28.6-9.4-29.3-8.7-.2.2.6 2.2 1.8 4.6l2.2 4.2-4.8 12.1c-2.7 6.7-4.7 12.4-4.6 12.8.1.5-.3.8-.9.8-.5 0-.8.3-.5.8.2.4-.4 2.5-1.4 4.7-1.1 2.2-1.9 4.6-2 5.3 0 .7-.9 3.1-2 5.2-1.1 2.2-1.8 4-1.4 4 .4 0 0 .7-.7 1.7-.8.9-1.3 1.9-1.3 2.2.2.6-.9 3.8-2.3 7.1-.3.8-.7 1.7-.7 2-.1.3-2.3 6.3-5 13.5-4.7 12.6-5.7 15.5-6.1 16.5-.1.3-.7 1.8-1.3 3.3-.7 1.6-1.2 3.4-1.2 4.1 0 .7-.3 1.6-.7 2-.4.3-.8 1.2-.9 1.9-.1.7-1.1 3.7-2.2 6.7-6.6 18-12.4 34.8-12.8 36.5-.2 1.1-1.3 4.5-2.5 7.5-1.1 3-2.1 5.9-2.2 6.5-.9 4.2-8.4 25.5-8.9 25.5-.4 0-1-1.1-1.4-2.5-.3-1.4-.9-2.5-1.3-2.5s-1.4-1.2-2.2-2.8c-.8-1.5-4.9-8.3-9.2-15.2-4.4-6.9-8.6-13.8-9.6-15.3-.9-1.6-3.1-4.8-4.8-7.2-1.8-2.4-3.3-4.9-3.3-5.4 0-.6-.4-1.1-.8-1.1-.5 0-1.5-1.2-2.3-2.7-.8-1.5-1.9-3.5-2.6-4.3-5.7-7.3-11.3-15.3-11.3-16 0-.4-.3-1-.8-1.2-.6-.2-4.6-5.2-8.4-10.3-2.9-3.9-21.9-27-25.7-31.1-7.9-8.9-13.6-15.5-13.9-16.5-.2-.5-.8-.7-1.3-.3-.5.3-.9 0-.9-.6 0-2.2-35.4-36.4-56.5-54.6-4.4-3.8-8.2-7.1-8.5-7.4-.3-.3-2-1.6-3.8-2.9-2.6-1.8-3.3-2.9-2.9-4.8.4-2.4.4-2.4-7-2.1-4.1.2-7.6.5-7.8.6zm370 408.2c.8 8.2 1.2 13.5 1.9 22 .3 3 .5 5.5.6 5.5.3 0 1.9 24.4 2.7 40 .7 14.6 1.1 85.7.5 86.9-.3.5-.6 5-.7 10-.2 5-.6 12.5-.9 16.6-.9 11.6-1.8 25.1-2 29.7 0 2.4-.3 4.3-.6 4.3s-.6 1.5-.6 3.3c-.3 6.9-1.9 22.6-3 28.2-.2 1.1-.6 4.7-.9 8.2-.3 3.4-.8 7.2-1 8.5-.3 1.3-.8 4.3-1.1 6.8-.3 2.5-.8 5.4-1 6.5-.3 1.1-.7 3.5-.9 5.2-.3 1.8-.7 4.8-1 6.5-.2 1.8-.7 4.4-1 5.8-.6 2.9-1.1 6-1.9 11-.3 1.9-1.4 8-2.5 13.5s-2.2 11.1-2.4 12.5c-.5 2.6-4.1 18.9-5.6 25.2-.5 2-.6 3.9-.3 4.2.3.4 0 .6-.7.6s-1 .4-.7.8c.3.5-1.1 7.1-3 14.8-1.9 7.6-3.7 14.8-3.9 15.9-.3 1-2.1 7.8-4.1 15-2 7.1-3.8 13.7-3.9 14.5-.1.8-.7 2.7-1.3 4.3-.7 1.5-1.4 3.8-1.6 5.1-.7 4.1-18.8 60.5-21.3 66.6-.3.8-.7 1.9-.8 2.5-.2.8-7.8 21.3-10.2 27.5-.3.8-.7 1.9-.8 2.5-.6 2.2-5.8 14.6-6.1 14.3-1-1.1-.8-12.2.3-17.3.7-3.3 2-9.8 2.9-14.5 1.5-8.5 1.9-10.8 2.7-14.5.4-1.9 1-5.4 2.2-12.4.3-1.9.7-5.3.9-7.7.2-2.3.6-4.6.9-5 .2-.5.8-3.8 1.1-7.4.4-3.6.9-7.4 1.1-8.5.3-1.1.7-4.5 1-7.5.2-3 .7-7.5 1-9.9.4-2.5.8-6.3 1-8.5.2-2.3.4-4.1.5-4.1.1 0 .4-3.4.6-7.5.6-9.9 1.2-16.5 1.4-16.5.2 0 1-13.1 1.3-21.2.1-4 .4-7.3.7-7.3.7 0 1.3-29.3 1.3-64 0-27.6-.6-50-2-73.5-1.1-19-.9-22.7 1.8-34.2.6-2.7 1.2-5.5 1.3-6.3.5-3.4 1.8-9.6 2.3-11 .4-.8.5-1.9.4-2.3-.1-.5.8-4.6 1.9-9.3 1.1-4.6 2.1-9.4 2.4-10.6.2-1.3 1.4-6.4 2.6-11.3 1.2-5 2.3-9.7 2.5-10.5.2-.8 1.5-6.2 3-12 1.4-5.8 2.8-11.2 3-12 .1-.8 1-4.2 1.9-7.5.9-3.3 1.9-6.8 2.1-7.8 1.1-4.9 11-39.4 12.2-42.7.7-1.7 1.1-3.1 1.7-5.8.3-.9.5-1.9.7-2.2.1-.3.3-1 .4-1.5.1-.6.5-1.7.8-2.5.3-.8 2-6 3.8-11.5 6-19.1 15-44.8 15.4-44.3.2.2.6 3.7 1 7.8zM547 534.2c1.4 1.8 3.7 4.5 5.3 6 1.5 1.6 2.7 3.3 2.7 3.8 0 .4.4 1 .9 1.2.4.1 4.2 4.3 8.2 9.3 4 4.9 7.7 9.1 8.1 9.3.5.2.8.8.8 1.3 0 .6 1 2 2.3 3.3 1.2 1.3 3.1 3.6 4.2 5.2 1.1 1.5 3.2 4.2 4.8 6 1.5 1.7 2.7 3.4 2.7 3.8 0 .3.8 1.5 1.8 2.5.9 1.1 2.2 2.6 2.7 3.3 3.3 4.4 9.9 13.3 14.5 19.8 3 4.1 5.9 7.8 6.5 8.2.6.5.6.8 0 .8s-.5.3.1.8c1.5.9 12.4 17 12.4 18.2 0 .4.3 1 .8 1.2.8.4 10.2 14.5 15.8 23.8 2.1 3.6 4.1 6.7 4.5 7 .3.3.9 1.2 1.2 2 .4.8 1.7 3.1 2.8 5 10.4 17.4 12.9 21.8 12.9 22.8 0 .7.4 1.2.9 1.2s1.4 1.2 2 2.7c.6 1.6 2.7 5.7 4.7 9.3 5.4 10 8.4 15.9 8.3 16.6 0 .4.4 1 1.1 1.4 1.3.8 2 4.7 2.3 12.5.1 3 .4 5.5.7 5.5.3 0 .6 2.1.6 4.8.1 2.6.4 6.7.8 9.2 1.4 9 1.7 11.6 2.1 16 .3 2.5 1.9 12.1 3.6 21.5 1.7 9.3 3.3 17.9 3.5 19 .2 1.1 1.7 7.6 3.4 14.5s3.3 13.2 3.5 14c4 17.7 22.4 68 28.1 76.7.8 1.3 1.2 2.3 1 2.3-.2 0 1.8 4.1 4.5 9.1 2.7 4.9 4.9 9.2 4.9 9.4 0 .2 2.7 4.7 6 10s6 10 6 10.6c0 .5.5.9 1 .9.6 0 1 .4 1 .9s2.3 4.1 5.2 8c2.8 3.8 5.3 7.8 5.6 8.8.8 4 2.3 13 2.7 16.3.2 1.9.6 4.7.9 6.2.6 3.8-.3 3.5-4.2-1.1-1.8-2.1-4.9-5.6-7-7.8-5.1-5.5-8.5-9.3-17.2-19.8-11.6-13.9-12.4-14.7-14.2-16.7-1-1-1.8-2.1-1.8-2.4 0-.4-1.4-2.3-3-4.3-1.7-2-3.4-4.1-3.8-4.6-.5-.6-4-5.2-8-10.2-4-5.1-7.2-9.7-7.2-10.2s-.4-1.1-.8-1.3c-1.1-.4-11.4-15-21.8-30.8-4.9-7.4-9.5-14.1-10.1-14.8-.7-.7-1.3-2-1.3-2.8 0-.8-.4-1.4-.9-1.4s-1.4-1.5-2.2-3.3c-.7-1.7-1.6-3.4-1.9-3.7-.8-.7-12.8-20.7-17.3-29-1.9-3.6-5.1-9.4-7.1-13-5.2-9.5-13-25.4-12.8-26.3.1-.4-.2-.7-.8-.7-.5 0-1-.9-1-2s-.4-2-1-2c-.5 0-1-.4-1-.9s-1.7-4.4-3.7-8.8c-2.1-4.3-3.8-8-3.9-8.3-.1-.5-1.6-4-5.6-13-2.6-5.7-4.8-10.9-5.8-13.5-.4-1.1-1.5-3.8-2.4-6-.9-2.2-1.7-4.5-1.7-5-.1-.6-.6-1.9-1.2-3s-1.2-2.2-1.2-2.5c0-.3-1.3-3.7-2.7-7.5-5.5-14.3-11.8-32.1-11.8-33.3 0-.7-.4-2-1-3-.8-1.4-5.3-15.9-6.5-21.2-.2-.8-.4-1.6-.5-1.8-.2-.1-.3-.5-.5-1-.1-.4-.5-1.4-.8-2.2-.4-.8-.8-2.4-1-3.5-.6-3-1.8-7.8-2.4-9.5-.8-2-.8-1.8-2.2-8.5-.7-3.3-1.7-6.7-2.1-7.5-.4-.8-1-2.9-1.4-4.5-.3-1.7-.7-3.9-1-5-1.7-6.8-3.6-15.6-4.2-19-.3-2.2-1-4.8-1.5-5.8-.5-.9-.8-1.7-.5-1.7.3 0 0-1.5-.5-3.3-.9-3.1-1.2-4.6-2.3-11.7-.3-1.9-.8-4.6-1.1-6-.3-1.4-.7-3.9-1-5.5-.2-1.7-.7-4.4-1.1-6-.3-1.7-.8-4.1-.9-5.5-.2-1.4-.4-2.7-.6-3-.3-.7-.4-1.5-1.3-9-.5-3.6-1-7.4-1.2-8.5-.2-1.1-.7-4-1-6.5-.3-2.5-.8-4.8-1.1-5.3-.2-.4-.1-.7.4-.7.4 0 1.9 1.5 3.3 3.2zM918.5 1086c-.4.6-1.1.7-1.7.4-.7-.5-.9-.1-.5.9.5 1.4.3 1.5-1.4.4-1.3-.8-2.2-.9-2.7-.2-.4.6-2 1.2-3.7 1.4-1.6.1-3.4.6-4 .9-.5.4-1.6.8-2.2.9-2.4.6-4.8 1.1-5.3 1.3-.3.1-.8.2-1.2.1-.5 0-.8.3-.8.8s-.6.8-1.2.8c-.7-.1-3.2.2-5.6.7-3.5.6-4.2 1.1-3.7 2.4.4 1.3.3 1.4-.5.6-1.2-1.2-10.3.4-9.5 1.7.3.4-.4.5-1.5.2-1.3-.3-2 0-2 .8 0 1.1-.2 1.1-1-.1-.6-1-1-1.1-1-.2 0 .6-.3 1.1-.7 1.1-2.2-.4-5.4.2-5 .8.3.5-.9.9-2.5 1-1.7.1-3.7 1-4.5 2-.8 1-1.2 1.2-.8.5.7-1.4-2.1-1.7-3-.2-.4.6-1.1.8-1.6.4-.5-.3-1.5-.1-2.2.4-.7.5-2 .8-2.9.7-1-.2-1.8 0-1.8.4 0 .3-3.6 1.5-8 2.5-4.4 1.1-8 2.2-8 2.6 0 .3-.8.7-1.7.8-3.4.4-5.2.8-5.9 1.4-.3.4-1.2.4-2 .1-.8-.3-1.4 0-1.4.6s-.3 1-.7 1c-1.6-.3-9.3 1.4-9.3 2 0 .4-1.2.8-2.6.9-1.4.1-3.1.5-3.7.9-.7.4-1.8.8-2.7.9-3.9.5-20.8 5.9-20.4 6.5.2.4-.5.5-1.6.2s-2-.1-2 .5-1 .8-2.2.4c-1.4-.3-1.9-.1-1.4.6.3.6.1 1.4-.5 1.8-.7.4-.9.3-.5-.4.3-.6.2-1.3-.4-1.7-.5-.3-1-.1-1 .5 0 .7-.7 1-1.5.6-.8-.3-1.9.2-2.4 1.2-.6.9-1.1 1.3-1.1.9s-.6-.2-1.3.5c-1.5 1.3-1.2 3.7 1 7.8.7 1.4 1.3 3.1 1.3 3.7 0 .7.8 1.3 1.8 1.3 1.4 0 1.5.2.2 1-1 .6-1.1 1-.2 1 .6 0 1.2.7 1.2 1.5s.4 1.5 1 1.5c.5 0 .9.3.8.7-.3 1.6 1.5 6.3 2.4 6.3.5 0 .7.4.4.9-.4.5-.1 1.1.4 1.3.6.2 1.2 1 1.3 1.8.1.8 1.5 3.7 3 6.4s2.7 5.2 2.7 5.7.4.9.8.9.8 1 .9 2.2c.1 1.1.6 2.4 1 2.7 1 .7 6.4 11.6 6.4 12.8 0 .4.7 1.5 1.5 2.4.8.9 1.1 1.9.7 2.2-.3.4.1.7 1 .7 1.1 0 1.4.5 1 1.7-.4 1.1-.3 1.4.5.9.8-.5 1-.2.6.8s-.1 1.6.7 1.6c.7 0 .9.3.6.7-.4.3.2 2 1.2 3.7 1.1 1.7 2 3.4 2.1 3.8.3 1.8 5.2 11.8 6.1 12.3.5.4.7 1.1.4 1.6-.4.5-.1.9.5.9s.8.5.5 1c-.3.6-.2 1 .4 1 .5 0 1.2.9 1.6 1.9.9 3 4.6 3.2 12.8.7 4.2-1.3 7.7-2.2 7.7-1.9 0 .3.7 0 1.5-.7s1.5-.9 1.5-.5.7.2 1.5-.5 1.5-1 1.5-.7c0 .4 1.8 0 4.1-.8s4.5-1.2 5-.9c.5.3.9 0 .9-.6s.6-1 1.3-.9c1 .2 16.2-4 20.7-5.8.8-.3 2.2-.7 3-.9 5.5-1 11-3.1 10.3-3.8-.5-.5 0-.6 1-.3 1.6.6 8.1-.9 13.7-3.1.8-.3 2.2-.7 3-.8 5.5-1.1 11-2.9 11-3.6 0-.5.5-.6 1.1-.3.6.4 1.7-.1 2.5-1.1.9-1.1 1.3-1.3.9-.7-.4.8 0 1.3.9 1.3s1.6-.4 1.6-.8 1.1-.9 2.6-1c3.5-.3 6.6-2.1 5.8-3.4-.4-.7-.3-.8.5-.4.6.4.9 1.1.7 1.5-.3.4.2.8 1 .8s1.3-.6 1-1.3c-.3-.8.2-1 1.6-.6 1.6.4 1.9.2 1.3-.9-.8-1.2-.6-1.2.9 0 1.6 1.3 1.7 1.2 1.4-1.1-.2-1.4-1-3.4-1.8-4.4-1.4-1.8-1.4-1.8.7 0 1.2 1 2.1 2.2 2 2.6-.1.4.2 1 .7 1.2.5.1 1-.7 1.1-1.9.1-1.3-.3-2.3-.9-2.3-.6 0-.4-.5.4-1 1.3-.9 1.3-1 0-1.1-.8-.1-1.8-.1-2.2 0-.5 0-.8-.4-.8-1s.6-.9 1.4-.6c.9.4 1.3-.4 1.4-2.4 0-1.6-.2-2.7-.6-2.5-.4.2-.7-2.7-.6-6.5 0-4.7-.3-6.6-1-6.2-.6.4-.5-.1.3-1 1.2-1.6.9-2.1-1.2-1.8-.4.1-.3-.7.2-1.8.6-1 .8-2 .6-2.2-.2-.3-.5-2.6-.6-5.2-.2-2.6-.8-4.7-1.3-4.7-.6 0-.4-.5.4-1 1.3-.9 1.3-1 0-1s-1.3-.1 0-1c.8-.5 1.1-1 .5-1-.5 0-1-2.1-.9-4.8 0-6.1-.4-6.7-2.5-4.1-1.4 1.7-1.8 1.9-1.8.6 0-.9.5-1.3 1-1 .6.4.8 0 .4-1s-.2-1.6.5-1.4c.7.1 1.4-.6 1.6-1.7.3-1.3 0-1.6-.9-1.1-.9.6-1 .4-.3-.6.5-.8.9-2.6 1-4.1 0-2.1-.3-2.5-1.2-1.7-.8.7-1.5.6-2-.2s-.3-.9.6-.4c1 .6 1.2.4.7-.9-.4-1-.3-1.5.3-1.1.6.3 1-.1 1-.9 0-.9-.3-1.6-.8-1.6-.4 0-1.3-1-2.1-2.3l-1.4-2.2 2.2 2c1.6 1.4 2.2 1.5 1.9.5-.2-.8-1.2-2.1-2.3-2.8-1.9-1.2-1.9-1.3.3-.6 2.2.5 2.3.4 1.3-1.5-.7-1.2-.9-2.1-.5-2.1.3 0 0-.8-.7-1.7-1-1.1-1-1.4-.1-.9.7.4 1.2.1 1.2-.9 0-.9-.4-1.4-.8-1.1-.4.2-1.3-.4-2-1.5-.7-1-.8-1.9-.3-1.9s1.2.6 1.4 1.2c.3.7.6.3.6-1 .1-1.4-.7-2.6-2.1-3.3-2.3-.9-2.3-.9-.1-.5 1.6.3 2.1-.1 2-1.5-.1-1.1-.6-1.9-1.2-1.9-.5 0-.4-.4.3-.9 1.1-.7 1.1-.9-.2-1.4-.9-.4-1.6-.1-1.6.6 0 .8-.4.6-1-.3-1.2-1.8-1.4-4-.2-2.5 1.6 2.2 3.2 1.5 3-1.4-.1-1.6-.6-2.7-1.1-2.4-.4.3-.8-.1-.6-.8.3-2.7-.1-4-1.1-3.4-.6.4-.7 1.1-.4 1.7.5.7.2.8-.6.3-.7-.4-1.6-.2-2.1.6-.6.9-.9 1-.9.2 0-.7.7-1.6 1.6-2.1 1.1-.6 1.3-1.2.6-1.6-.6-.3-1.3-.2-1.7.4zm-2.3 5.2c-1.5 1.5-4.9 2.1-5.6.9-.3-.4.6-.7 1.9-.5 1.4.1 2.7-.2 3.1-.7.3-.5.8-.9 1.2-.9.3 0 .1.5-.6 1.2zm5.3.7c-.8 1.4-2.5 1.4-2.5 0 0-.5.5-.7 1-.4.6.3 1 .1 1-.6s.3-1 .6-.6c.3.3.3 1-.1 1.6zm-12.8 1.6c0 .8-.4 1.2-.9.9-.5-.3-.6-1-.3-1.5.9-1.3 1.2-1.1 1.2.6zm7.7.7c-.5.8-.2.9 1.1.4 1.5-.5 1.6-.4.5.9-1 1.2-1.5 1.3-2.1.3-.7-1.2-.3-2.8.7-2.8.3 0 .2.5-.2 1.2zm-13.8 2.4c.1.9 0 1.3-.4 1-.3-.4-.7-1.4-.8-2.2-.1-.9 0-1.3.4-1 .3.4.7 1.4.8 2.2zm-8.2 0c.3.8.2 1.2-.4.9-.6-.3-1-1-1-1.6 0-1.4.7-1.1 1.4.7zm17.9 1.7c-.4.6 0 .8.9.5.8-.4 1.5-.1 1.5.7 0 .8-.7 1.1-1.6.7-1.4-.5-1.4-.4-.1 1.4 1.4 1.8 1.4 1.8-.3.5-.9-.8-1.5-1.6-1.2-1.9.3-.3 0-1-.5-1.7-.7-.8-.5-1.2.5-1.2.8 0 1.1.5.8 1zm-33.6 2.6c0 1.1-.5 1.8-.9 1.5-.4-.3-.5-1.1-.1-1.9.7-2.1 1.2-1.9 1 .4zm15.3-1.3c0 .8-1.9 1.3-2.4.6-.3-.5.1-.9.9-.9s1.5.2 1.5.3zm7 .4c0 .5-.2 1-.4 1-.3 0-.8-.5-1.1-1-.3-.6-.1-1 .4-1 .6 0 1.1.4 1.1 1zm8.7 1.2c-.3.8-.6.5-.6-.6-.1-1.1.2-1.7.5-1.3.3.3.4 1.2.1 1.9zm9.4 1c-1 1.1-1.1.9-.5-.6.6-1.5.4-1.7-.6-1.1-.9.6-1.1.4-.5-.4.5-.9 1-1 1.8-.2s.7 1.4-.2 2.3zm4.3-2.4c.3.5-.1.9-.9.9s-1.2-.4-.9-.9c.3-.4.7-.8.9-.8.2 0 .6.4.9.8zm-20.4 2.6c0 .2-.8 1-1.7 1.7-1.6 1.3-1.7 1.2-.4-.4 1.3-1.6 2.1-2.1 2.1-1.3zm9 1.1c0 .2-.6.8-1.3 1.4-1 .8-1.4.7-1.4-.2 0-.8.6-1.4 1.4-1.4.7 0 1.3.1 1.3.2zm4 .5c-.8.5-1.9 1-2.5 1-.5 0-.3-.5.5-1s2-1 2.5-1c.6 0 .3.5-.5 1zm6.5.8c-.3.3-1.1 0-1.8-.7-.9-1-.8-1.1.6-.5 1 .3 1.5.9 1.2 1.2zM879 1106c0 .5-.5 1-1.1 1-.5 0-.7-.5-.4-1 .3-.6.8-1 1.1-1 .2 0 .4.4.4 1zm-9.6 1.8c.3.5-.1.9-.9.9s-1.2-.4-.9-.9c.3-.4.7-.8.9-.8.2 0 .6.4.9.8zm12.9.7c.4.8.3 1.6-.1 1.9-.4.3-.9-.4-.9-1.5-.2-2.3.3-2.5 1-.4zm28.1.1c.3.8.2 1.2-.4.9-.6-.3-1-1-1-1.6 0-1.4.7-1.1 1.4.7zm10.2-.4c.3.4-.1.5-1 .4-.8-.1-1.8-.5-2.2-.8-.3-.4.1-.5 1-.4.8.1 1.8.5 2.2.8zm-33.6 1.2c0 .3-.4.8-1 1.1-.5.3-1 .1-1-.4 0-.6.5-1.1 1-1.1.6 0 1 .2 1 .4zm14.4.8c-.3.4-.9.8-1.5.8-.5 0-.9-.4-.9-.8 0-.5.7-.9 1.5-.9s1.2.4.9.9zm13.6.2c0 .2-.8 1-1.7 1.7-1.6 1.3-1.7 1.2-.4-.4 1.3-1.6 2.1-2.1 2.1-1.3zm2.4 1.4c.3.5-.1.9-.9.9s-1.2-.4-.9-.9c.3-.4.7-.8.9-.8.2 0 .6.4.9.8zm-34.8 3.8c.1.9 0 1.3-.4 1-.3-.4-.7-1.4-.8-2.2-.1-.9 0-1.3.4-1 .3.4.7 1.4.8 2.2zm4.4-1.6c0 .5-.5 1-1.1 1-.5 0-.7-.5-.4-1 .3-.6.8-1 1.1-1 .2 0 .4.4.4 1zm14.4-.2c.3.5-.1.9-.9.9s-1.5-.4-1.5-.9c0-.4.4-.8.9-.8.6 0 1.2.4 1.5.8zm7.1 0c-.3.3 0 1.1.6 1.9 1.7 2 .5 1.6-1.4-.5-1.5-1.6-1.5-1.9-.2-1.9.8 0 1.3.3 1 .5zm4.6 1c-.7.2-1.8-.1-2.3-.6-.8-.8-.4-.9 1.3-.5 1.3.4 1.8.8 1 1.1zm7.9 3.7c0 .5-.5.3-1-.5s-1-2-1-2.5c0-.6.5-.3 1 .5s1 1.9 1 2.5zm-7.5-.7c-.3.3-1.1 0-1.8-.7-.9-1-.8-1.1.6-.5 1 .3 1.5.9 1.2 1.2zm-6.8 1.7c0 .8-.3 1.3-.5 1-.3-.3-1.2.1-2.1.7-1 .8-.9.4.3-1 2.3-2.6 2.3-2.6 2.3-.7zm5.9-.3c.5-.4.6-.3.2.2-.4.5-.2 1.6.4 2.5 1 1.2.7 1.2-.8-.2-1.1-.9-2.3-1.5-2.6-1.2-.2.3-.5-.2-.5-1 0-1 .4-1.2 1.2-.5.7.5 1.6.6 2.1.2zm-15.9 2.5c-.4.3-.1 1.3.6 2.2 1.1 1.4 1 1.4-.5.2-1.6-1.2-1.6-3.1-.1-3.1.4 0 .3.3 0 .7zm4.8.3c.3.6-.1.7-.9.4-1.8-.7-2.1-1.4-.7-1.4.6 0 1.3.4 1.6 1zm23.5 2.3c0 .6-.3.7-.7.4-.3-.4-1.1-.3-1.7.3-.8.6-1.2.3-1.2-.9s.6-1.7 1.8-1.3c1 .2 1.8.9 1.8 1.5zm-42-.3c0 .5-.5 1-1.1 1-.5 0-.7-.5-.4-1 .3-.6.8-1 1.1-1 .2 0 .4.4.4 1zm30.1 2.3c-.6.8-.8 1.7-.4 2 .3.4.1.7-.5.7-1.5 0-1.5-1.3 0-2.8 1.6-1.6 2.3-1.5.9.1zm7.8 1c.8 1 .7 1.4-.2 1.4-.8 0-1.4-.6-1.4-1.4 0-.7.1-1.3.2-1.3.2 0 .8.6 1.4 1.3zm-15.9.7c0 .5-.5 1-1.1 1-.5 0-.7-.5-.4-1 .3-.6.8-1 1.1-1 .2 0 .4.4.4 1zm-22.5 1.9c.3.5.2 1.2-.3 1.5-.5.3-.9-.1-.9-.9 0-1.7.3-1.9 1.2-.6zm22.4 1.4c.8 1 .7 1.4-.2 1.4-.8 0-1.4-.6-1.4-1.4 0-.7.1-1.3.2-1.3.2 0 .8.6 1.4 1.3zm10.1-.9c0 .2-.8 1-1.7 1.7-1.6 1.3-1.7 1.2-.4-.4 1.3-1.6 2.1-2.1 2.1-1.3zm2.2 1.9c-.7.8-1 1.6-.7 1.9.3.2-.1.5-.9.5-1.2 0-1.1-.5.2-2.3.9-1.2 1.9-2 2.1-1.8.2.2-.1 1-.7 1.7zm-40.2-.3c0 .5-.2 1-.4 1-.3 0-.8-.5-1.1-1-.3-.6-.1-1 .4-1 .6 0 1.1.4 1.1 1zm25-.6c0 .2-.8 1-1.7 1.7-1.6 1.3-1.7 1.2-.4-.4 1.3-1.6 2.1-2.1 2.1-1.3zm23 .6c0 .5-.2 1-.4 1-.3 0-.8-.5-1.1-1-.3-.6-.1-1 .4-1 .6 0 1.1.4 1.1 1zm-156 1.5c0 .7-3 1.3-3.4.7-.3-.4.4-.9 1.5-.9 1-.1 1.9 0 1.9.2zm144 .9c0 .2-.6.9-1.4 1.5-1.1.9-1.6.9-2.2 0-.4-.7-.3-.9.4-.5.6.3 1.3.2 1.7-.4.6-1 1.5-1.4 1.5-.6zm-22.7 2.1c.4.8.3 1.6-.1 1.9-.4.3-.9-.4-.9-1.5-.2-2.3.3-2.5 1-.4zm34.5 0c.3.3-.4.4-1.6.2-1.2-.2-2.4-.6-2.8-1-.4-.3.4-.4 1.6-.2 1.2.2 2.5.7 2.8 1zm-29.8.9c0 .3-.4.8-1 1.1-.5.3-1 .1-1-.4 0-.6.5-1.1 1-1.1.6 0 1 .2 1 .4zm23 .1c0 .1-1 1-2.2 2.1-1.4 1.2-1.8 1.3-1 .3.6-.9 1-1.8.7-2.1-.3-.2.2-.5 1-.5s1.5.1 1.5.2zm-5.6 3.4c-.2.3-1.2-.3-2.2-1.3-1.6-1.7-1.6-1.8.5-.5 1.2.7 2 1.5 1.7 1.8zm7.6-1.5c0 .2-.8 1-1.7 1.7-1.6 1.3-1.7 1.2-.4-.4 1.3-1.6 2.1-2.1 2.1-1.3zm-25.5 2.6c.3.5.1 1-.4 1-.6 0-1.1-.5-1.1-1 0-.6.2-1 .4-1 .3 0 .8.4 1.1 1zm27.8 1.5c-.3.9-.8 1.4-1 1.1-.3-.3-.2-.9.2-1.5.9-1.6 1.5-1.3.8.4zm-53.3.1c0 .8-1.9 1.3-2.4.6-.3-.5.1-.9.9-.9s1.5.2 1.5.3zm-96 2.4c0 .5-.5 1-1.1 1-.5 0-.7-.5-.4-1 .3-.6.8-1 1.1-1 .2 0 .4.4.4 1zm149.9 1.4c.9 1 .8 1.5-.2 1.9-.8.3-1.3-.3-1.3-1.4 0-2.3 0-2.3 1.5-.5zm5.3.8c-.7.7-1.2.8-1.2.2 0-1.4 1.2-2.6 1.9-1.9.2.3-.1 1.1-.7 1.7zm-2.2 1.2c0 .2-.8 1-1.7 1.7-1.6 1.3-1.7 1.2-.4-.4 1.3-1.6 2.1-2.1 2.1-1.3zm-45.5 3.4c-.3.3-1.1 0-1.8-.7-.9-1-.8-1.1.6-.5 1 .3 1.5.9 1.2 1.2zm5.5-.8c.8.5 1.1 1 .5 1-.5 0-1.7-.5-2.5-1s-1-1-.5-1c.6 0 1.7.5 2.5 1zm24.4.6c.3.8.2 1.2-.4.9-.6-.3-1-1-1-1.6 0-1.4.7-1.1 1.4.7zm12 0c.3.8.2 1.2-.4.9-.6-.3-1-1-1-1.6 0-1.4.7-1.1 1.4.7zm-5.3 1.1c1.3 1.6 1.2 1.7-.3.4-1.7-1.3-2.2-2.1-1.4-2.1.2 0 1 .8 1.7 1.7zm-141.1-.1c0 .8-1.9 1.3-2.4.6-.3-.5.1-.9.9-.9s1.5.2 1.5.3zm25 2.4c0 .5-.5 1-1.1 1-.5 0-.7-.5-.4-1 .3-.6.8-1 1.1-1 .2 0 .4.4.4 1zm123.3.8c1.5 1.6 1.5 1.9.2 1.9-.8 0-1.3-.3-1-.5.3-.3 0-1.1-.6-1.9-1.7-2-.5-1.6 1.4.5zm-33.8.1c.3.5.2 1.2-.3 1.5-.5.3-.9-.1-.9-.9 0-1.7.3-1.9 1.2-.6zm27.5.5c0 .2-.8 1-1.7 1.7-1.6 1.3-1.7 1.2-.4-.4 1.3-1.6 2.1-2.1 2.1-1.3zm3.4.4c.3.5-.1.9-.9.9s-1.2-.4-.9-.9c.3-.4.7-.8.9-.8.2 0 .6.4.9.8zm-124.8 1.7c-.1.8-.5 1.7-.8 2.1-.5.4-.4-1.6.1-3.4.3-.9.9.1.7 1.3zm116.8.7c-.3.4-.9.8-1.5.8-.5 0-.9-.4-.9-.8 0-.5.7-.9 1.5-.9s1.2.4.9.9zm-18.8 3.4c.1.9 0 1.3-.4 1-.3-.4-.7-1.4-.8-2.2-.1-.9 0-1.3.4-1 .3.4.7 1.4.8 2.2zm22.8-1.8c.3.5-.1.9-.9.9s-1.5-.4-1.5-.9c0-.4.4-.8.9-.8.6 0 1.2.4 1.5.8zm7 3.1c-.2.3-1.2-.3-2.2-1.3-1.6-1.7-1.6-1.8.5-.5 1.2.7 2 1.5 1.7 1.8zm-35.5 1.5c-.3.3-1.1-.5-1.8-1.7-1.3-2.1-1.2-2.1.5-.5 1 1 1.6 2 1.3 2.2zm-110.4-.5c.3.5.2 1.2-.3 1.5-.5.3-.9-.1-.9-.9 0-1.7.3-1.9 1.2-.6zm120.5-.5c0 .3-.4.8-1 1.1-.5.3-1 .1-1-.4 0-.6.5-1.1 1-1.1.6 0 1 .2 1 .4zm21.6 5c0 1.4-.3 2.3-.7 2-.6-.3-.6-2.2 0-4.2.3-1 .7.2.7 2.2zm8.5-.1c-.6.8-.8 1.7-.4 2 .3.4.1.7-.5.7-1.5 0-1.5-1.3 0-2.8 1.6-1.6 2.3-1.5.9.1zm-33 2.4c1.3 1.6 1.2 1.7-.3.4-1-.7-1.8-1.5-1.8-1.7 0-.8.8-.3 2.1 1.3zm4.9-1.1c0 .8-1.9 1.3-2.4.6-.3-.5.1-.9.9-.9s1.5.2 1.5.3zm17.3 1.4c1 1.2.9 1.2-.4.2-.9-.6-1.8-.9-2.1-.6-.3.3-.9.1-1.2-.4-.9-1.5 2.2-.8 3.7.8zm12.4.2c-.3.8-.6.5-.6-.6-.1-1.1.2-1.7.5-1.3.3.3.4 1.2.1 1.9zm-23.7.8c0 .5-.2 1-.4 1-.3 0-.8-.5-1.1-1-.3-.6-.1-1 .4-1 .6 0 1.1.4 1.1 1zm-8.6 3.9c-.9.9-3.4.9-3.4.1 0-.5.9-.8 2-.7 1 .1 1.7.3 1.4.6zm31.2.3c.3.4-.1.5-1 .4-.8-.1-1.8-.5-2.2-.8-.3-.4.1-.5 1-.4.8.1 1.8.5 2.2.8zm-15.3 1.3c-.3.9-.8 1.4-1 1.1-.3-.3-.2-.9.2-1.5.9-1.6 1.5-1.3.8.4zm11.8 1.2c1.3 1.6 1.2 1.7-.3.4-1-.7-1.8-1.5-1.8-1.7 0-.8.8-.3 2.1 1.3zm4.5 2.8c-.1.8-.5 1.7-.8 2.1-.5.4-.4-1.6.1-3.4.3-.9.9.1.7 1.3zm-16.2.3c.3.5-.1.9-.9.9s-1.2-.4-.9-.9c.3-.4.7-.8.9-.8.2 0 .6.4.9.8zm13.2.4c.3.4-.1.5-1 .4-.8-.1-1.8-.5-2.2-.8-.3-.4.1-.5 1-.4.8.1 1.8.5 2.2.8zm-29 2.3c-.1.8-.5 1.7-.8 2.1-.5.4-.4-1.6.1-3.4.3-.9.9.1.7 1.3zm7.9-.5c.3.5.1 1-.4 1-.6 0-1.1-.5-1.1-1 0-.6.2-1 .4-1 .3 0 .8.4 1.1 1zm14.5 1.5c1.3 1.4 2.1 2.5 1.8 2.5-.2 0-1.5-1.1-2.8-2.5-1.3-1.4-2.1-2.5-1.8-2.5.2 0 1.5 1.1 2.8 2.5zm8.4 6.3c.2.4-.4.8-1.4.8-1 0-1.6-.4-1.4-.8.3-.4.9-.8 1.4-.8.5 0 1.1.4 1.4.8zm-8.8 4.8c.1.9-.1 1.3-.4.9-.4-.4-.7-1-.7-1.3 0-.4-.4-1.4-.9-2.2-.7-1.2-.6-1.3.4-.3.8.7 1.5 2 1.6 2.9zm-10.1-.6c.3.5.1 1-.4 1-.6 0-1.1-.5-1.1-1 0-.6.2-1 .4-1 .3 0 .8.4 1.1 1zm-11 2c.3.6-.1.7-.9.4-1.8-.7-2.1-1.4-.7-1.4.6 0 1.3.4 1.6 1zm-1.4 5.3c-1 .9-1.1.8-.5-.6.3-1 .9-1.5 1.2-1.2.3.3 0 1.1-.7 1.8zM861 1212c0 .5-.5 1-1.1 1-.5 0-.7-.5-.4-1 .3-.6.8-1 1.1-1 .2 0 .4.4.4 1z"/></svg>