<svg width="124" height="14" viewBox="0 0 124 14" fill="none" xmlns="http://www.w3.org/2000/svg">
<path d="M0.300781 13V0.203125H4.68652C6.13379 0.203125 7.23535 0.493164 7.99121 1.07324C8.74707 1.65332 9.125 2.51758 9.125 3.66602C9.125 4.25195 8.9668 4.7793 8.65039 5.24805C8.33398 5.7168 7.87109 6.08008 7.26172 6.33789C7.95312 6.52539 8.48633 6.87988 8.86133 7.40137C9.24219 7.91699 9.43262 8.53809 9.43262 9.26465C9.43262 10.4658 9.0459 11.3887 8.27246 12.0332C7.50488 12.6777 6.40332 13 4.96777 13H0.300781ZM2.52441 7.22559V11.2246H4.99414C5.69141 11.2246 6.23633 11.0518 6.62891 10.7061C7.02148 10.3604 7.21777 9.87988 7.21777 9.26465C7.21777 7.93457 6.53809 7.25488 5.17871 7.22559H2.52441ZM2.52441 5.59082H4.7041C5.39551 5.59082 5.93457 5.43555 6.32129 5.125C6.71387 4.80859 6.91016 4.36328 6.91016 3.78906C6.91016 3.15625 6.72852 2.69922 6.36523 2.41797C6.00781 2.13672 5.44824 1.99609 4.68652 1.99609H2.52441V5.59082ZM14.5391 0.203125L18.2305 10.0117L21.9131 0.203125H24.7871V13H22.5723V8.78125L22.792 3.13867L19.0127 13H17.4219L13.6514 3.14746L13.8711 8.78125V13H11.6562V0.203125H14.5391ZM37.1885 8.83398C37.0596 10.1992 36.5557 11.2656 35.6768 12.0332C34.7979 12.7949 33.6289 13.1758 32.1699 13.1758C31.1504 13.1758 30.251 12.9355 29.4717 12.4551C28.6982 11.9688 28.1006 11.2803 27.6787 10.3896C27.2568 9.49902 27.0371 8.46484 27.0195 7.28711V6.0918C27.0195 4.88477 27.2334 3.82129 27.6611 2.90137C28.0889 1.98145 28.7012 1.27246 29.498 0.774414C30.3008 0.276367 31.2266 0.0273438 32.2754 0.0273438C33.6875 0.0273438 34.8242 0.411133 35.6855 1.17871C36.5469 1.94629 37.0479 3.03027 37.1885 4.43066H34.9736C34.8682 3.51074 34.5986 2.84863 34.165 2.44434C33.7373 2.03418 33.1074 1.8291 32.2754 1.8291C31.3086 1.8291 30.5645 2.18359 30.043 2.89258C29.5273 3.5957 29.2637 4.62988 29.252 5.99512V7.12891C29.252 8.51172 29.498 9.56641 29.9902 10.293C30.4883 11.0195 31.2148 11.3828 32.1699 11.3828C33.043 11.3828 33.6992 11.1865 34.1387 10.7939C34.5781 10.4014 34.8564 9.74805 34.9736 8.83398H37.1885ZM48.3682 8.06934H45.8896V13H43.666V0.203125H48.166C49.6426 0.203125 50.7822 0.53418 51.585 1.19629C52.3877 1.8584 52.7891 2.81641 52.7891 4.07031C52.7891 4.92578 52.5811 5.64355 52.165 6.22363C51.7549 6.79785 51.1807 7.24023 50.4424 7.55078L53.3164 12.8857V13H50.9346L48.3682 8.06934ZM45.8896 6.28516H48.1748C48.9248 6.28516 49.5107 6.09766 49.9326 5.72266C50.3545 5.3418 50.5654 4.82324 50.5654 4.16699C50.5654 3.48145 50.3691 2.95117 49.9766 2.57617C49.5898 2.20117 49.0098 2.00781 48.2363 1.99609H45.8896V6.28516ZM62.3779 7.28711H57.1221V11.2246H63.2656V13H54.8984V0.203125H63.2041V1.99609H57.1221V5.5293H62.3779V7.28711ZM71.7646 9.7041C71.7646 9.1416 71.5654 8.70801 71.167 8.40332C70.7744 8.09863 70.0625 7.79102 69.0312 7.48047C68 7.16992 67.1797 6.82422 66.5703 6.44336C65.4043 5.71094 64.8213 4.75586 64.8213 3.57812C64.8213 2.54688 65.2402 1.69727 66.0781 1.0293C66.9219 0.361328 68.0146 0.0273438 69.3564 0.0273438C70.2471 0.0273438 71.041 0.191406 71.7383 0.519531C72.4355 0.847656 72.9834 1.31641 73.3818 1.92578C73.7803 2.5293 73.9795 3.2002 73.9795 3.93848H71.7646C71.7646 3.27051 71.5537 2.74902 71.1318 2.37402C70.7158 1.99316 70.1182 1.80273 69.3389 1.80273C68.6123 1.80273 68.0469 1.95801 67.6426 2.26855C67.2441 2.5791 67.0449 3.0127 67.0449 3.56934C67.0449 4.03809 67.2617 4.43066 67.6953 4.74707C68.1289 5.05762 68.8438 5.3623 69.8398 5.66113C70.8359 5.9541 71.6357 6.29102 72.2393 6.67188C72.8428 7.04688 73.2852 7.48047 73.5664 7.97266C73.8477 8.45898 73.9883 9.03027 73.9883 9.68652C73.9883 10.7529 73.5781 11.6025 72.7578 12.2354C71.9434 12.8623 70.8359 13.1758 69.4355 13.1758C68.5098 13.1758 67.6572 13.0059 66.8779 12.666C66.1045 12.3203 65.501 11.8457 65.0674 11.2422C64.6396 10.6387 64.4258 9.93555 64.4258 9.13281H66.6494C66.6494 9.85938 66.8896 10.4219 67.3701 10.8203C67.8506 11.2188 68.5391 11.418 69.4355 11.418C70.209 11.418 70.7891 11.2627 71.1758 10.9521C71.5684 10.6357 71.7646 10.2197 71.7646 9.7041ZM78.8223 0.203125L82.5137 10.0117L86.1963 0.203125H89.0703V13H86.8555V8.78125L87.0752 3.13867L83.2959 13H81.7051L77.9346 3.14746L78.1543 8.78125V13H75.9395V0.203125H78.8223ZM99.0283 10.0205H94.0713L93.0342 13H90.7227L95.5566 0.203125H97.5518L102.395 13H100.074L99.0283 10.0205ZM94.6953 8.22754H98.4043L96.5498 2.91895L94.6953 8.22754ZM108.556 8.06934H106.077V13H103.854V0.203125H108.354C109.83 0.203125 110.97 0.53418 111.772 1.19629C112.575 1.8584 112.977 2.81641 112.977 4.07031C112.977 4.92578 112.769 5.64355 112.353 6.22363C111.942 6.79785 111.368 7.24023 110.63 7.55078L113.504 12.8857V13H111.122L108.556 8.06934ZM106.077 6.28516H108.362C109.112 6.28516 109.698 6.09766 110.12 5.72266C110.542 5.3418 110.753 4.82324 110.753 4.16699C110.753 3.48145 110.557 2.95117 110.164 2.57617C109.777 2.20117 109.197 2.00781 108.424 1.99609H106.077V6.28516ZM123.893 1.99609H119.902V13H117.696V1.99609H113.741V0.203125H123.893V1.99609Z" fill="#2F2F2F"/>
</svg>
